<?xml version="1.0" encoding="UTF-8"?>
<svg id="Layer_1" xmlns="http://www.w3.org/2000/svg" version="1.1" xmlns:xlink="http://www.w3.org/1999/xlink" viewBox="0 0 566.93 566.93">
  <!-- Generator: Adobe Illustrator 29.5.1, SVG Export Plug-In . SVG Version: 2.1.0 Build 141)  -->
  <defs>
    <style>
      .st0 {
        fill: #216587;
      }

      .st1 {
        filter: url(#drop-shadow-1);
      }
    </style>
    <filter id="drop-shadow-1" x="11.5" y="21.5" width="544" height="524" filterUnits="userSpaceOnUse">
      <feOffset dx="3" dy="3"/>
      <feGaussianBlur result="blur" stdDeviation="2.83"/>
      <feFlood flood-color="#231f20" flood-opacity=".28"/>
      <feComposite in2="blur" operator="in"/>
      <feComposite in="SourceGraphic"/>
    </filter>
  </defs>
  <g class="st1">
    <path class="st0" d="M321.77,30.09c3.74,3.84,7.03,34.59,10.18,42.64,4.16,10.61,9.43,6.67,18,9.8,6.33,2.31,33.38,15.57,36.17,15.57,11.21.02,33.72-30.85,44.07-29.22,3.07.48,23.18,19.06,27.31,22.85,7.58,6.95,27.45,25.12,32.31,32.57,1.8,2.76,2.86,3.72,2.1,7.32-2.18,10.27-23.89,30.04-21.08,41.2l22.33,47.26c8.06,5.67,43.47,6.95,47.59,12.64,6.01,8.3-.41,67.32,1.93,81.38l-1.64,3.92c-5.44,7.16-40,4.92-47.38,13.77-7.94,9.51-14.59,39.26-23.19,51.06.34,11.05,24.19,34.83,21.49,43.45-.66,2.11-23.24,25.15-26.99,28.77-10.42,10.06-23.08,21.15-34.33,29.76-11.76-1.38-33.88-29.27-44.03-26.74-2.82.71-8.72,6.13-12.49,8.04-7.37,3.73-36.85,15.82-40.02,19.28-7.24,7.93-6.72,42.07-13.73,45.57-11.17,5.58-56.09-3.2-71.13,2.15-19.71-1.31-8.62-40.19-23.57-50.2-5.46-3.65-15.25-5.18-21.49-8.16-10.63-5.08-20.28-11.54-30.85-16.61-10.28,2.38-34.9,29.13-43.92,26.65-10.37-2.84-45.26-47.77-57.49-55.68-8.16-14,22.72-33.41,18.24-49.7l-22.64-49.69c-16.5-8.35-47.2.58-49.33-22.94-1.26-13.86-1.91-53.89.2-66.69,3.15-19.11,40.85-9.65,50.8-21.47,2.28-2.7,16.56-33.64,18.57-38.87,9.11-23.73-20.98-39.12-17.33-52.4,1.94-7.04,52.46-51.99,62.11-58.41,12.16,2.21,34.77,30.77,45.56,28.98,3.96-.65,11.49-6.17,16.3-7.99,6.67-2.52,33.01-9.62,35.29-12.89,4.14-8.28,6.02-45.01,12.8-48.36,3.67-1.81,61.45-1.67,69.6-.98,2.81.24,7.73.35,9.69,2.35ZM331.54,155.6c-8.96-55.98-90.43-54.66-102.26-.17-11.18,1.19-19.67-2.84-28.61,5.73-1.68,1.61-2.47,5.2-2.84,5.47-.63.46-10.44-2.02-15.54-1.66-27.39,1.97-48.46,11.47-51.04,41.61-3.36,39.22-2.93,108.86,0,148.39,7.01,94.8,107.68,149.73,195.07,124.5,50.03-14.44,98.88-63.72,103.44-117.09,4.55-53.26-2.82-113.86-.94-167.83-7.03-18.72-23.67-27.51-42.71-29.57-6.42-.7-16.68,1.39-21.96-.34-2.38-.78-2.57-4.17-4.39-5.3-8.94-5.55-18.23-3.24-28.2-3.75Z"/>
    <path class="st0" d="M198.04,198.3c-.44,15.29,3.16,24.49,19.36,26.05,40.86,3.93,88.14-3.03,129.7-.21,20.21-3.12,14.61-23.45,17.98-25.57,15.15,1.03,33.18-6.96,35.04,13.56,3.33,36.73,2.34,99.9,0,137.31-6.03,96.77-123.57,137.03-196.37,79.44-22.91-18.12-38.73-40.31-41-70.19-3.72-48.93,2.88-102.55.12-151.99,2.53-13.51,25.03-6.93,35.17-8.4ZM341.8,319.85c6.14-6.6,29.24-29.09,30.37-35.48,3.23-18.38-15.39-25.94-28.75-13.86-14.96,13.53-30.76,34.38-45.24,49.22-11.91,12.21-24.22,24.1-36.47,35.97-5.58.99-36.42-39.79-44.65-42.11-7.34-2.07-18.63,2.44-20.39,10.27-2.3,10.22,1.92,15.24,7.82,22.73,8.45,10.73,33.48,35.02,44.39,44.54,8.27,7.22,11.61,9.88,21.5,2.77,23.54-24.88,48.13-49.02,71.42-74.05Z"/>
    <path class="st0" d="M277.28,144.93c29.98-4.34,32.89,40.42,4.84,42.21-25.38,1.62-30.82-38.45-4.84-42.21Z"/>
  </g>
</svg>